<?xml version="1.0" encoding="utf-8"?>
<!-- Generator: Adobe Illustrator 22.0.1, SVG Export Plug-In . SVG Version: 6.00 Build 0)  -->
<svg version="1.1" id="Layer_1" xmlns="http://www.w3.org/2000/svg" xmlns:xlink="http://www.w3.org/1999/xlink" x="0px" y="0px"
	 viewBox="0 0 724.7 143.1" style="enable-background:new 0 0 724.7 143.1;" xml:space="preserve">
<style type="text/css">
	.st0{fill:#4294D3;}
	.st1{font-family:'Sportscenter';}
	.st2{font-size:140px;}
	.st3{letter-spacing:-10;}
	.st4{fill:#21BDF0;}
	.st5{fill:none;stroke:#21BDF0;stroke-width:6;stroke-linecap:round;}
</style>
<title>Fabio</title>
<text transform="matrix(1 0 0 1 291 140)" class="st0 st1 st2 st3">Fabio</text>
<path class="st0" d="M106,0h60c5.5,0,10,4.5,10,10v20c0,5.5-4.5,10-10,10h-60c-5.5,0-10-4.5-10-10V10C96,4.5,100.5,0,106,0z"/>
<path class="st0" d="M10,104h60c5.5,0,10,4.5,10,10v20c0,5.5-4.5,10-10,10H10c-5.5,0-10-4.5-10-10v-20C0,108.5,4.5,104,10,104z"/>
<path class="st0" d="M106,104h60c5.5,0,10,4.5,10,10v20c0,5.5-4.5,10-10,10h-60c-5.5,0-10-4.5-10-10v-20C96,108.5,100.5,104,106,104
	z"/>
<path class="st4" d="M202,104h60c5.5,0,10,4.5,10,10v20c0,5.5-4.5,10-10,10h-60c-5.5,0-10-4.5-10-10v-20
	C192,108.5,196.5,104,202,104z"/>
<line class="st5" x1="136" y1="48" x2="136" y2="96"/>
<line class="st5" x1="40" y1="80" x2="40" y2="96"/>
<line class="st5" x1="232" y1="80" x2="232" y2="96"/>
<line class="st5" x1="80" y1="64" x2="192" y2="64"/>
<line class="st5" x1="80" y1="64" x2="40" y2="80"/>
<line class="st5" x1="192" y1="64" x2="232" y2="80"/>
</svg>
